# Blender v3.0.0 OBJ File: ''
# www.blender.org
o Sphere
v 0.072679 0.389857 -0.678284
v 0.252717 0.442850 -0.856606
v 0.054341 0.472507 -0.894909
v -0.097770 0.460975 -0.971809
v 0.512348 0.383605 -0.959159
v 0.367826 0.431529 -1.068871
v 0.223558 0.424561 -1.159283
v 0.719857 0.221533 -0.875727
v 0.707503 0.230935 -1.048060
v 0.632793 0.224528 -1.192966
v 0.749490 0.072289 -0.659582
v 0.808578 0.022645 -0.823640
v 0.822456 -0.031905 -0.991211
v 0.708196 -0.062969 -0.467215
v 0.785059 -0.136117 -0.623204
v 0.830502 -0.209069 -0.801319
v 0.704582 -0.244165 -0.379281
v 0.783366 -0.315439 -0.544872
v 0.835522 -0.381746 -0.734379
v 0.743656 -0.453252 -0.345064
v 0.813961 -0.506681 -0.523550
v 0.856121 -0.551571 -0.723109
v -1.320153 -0.416600 -0.514458
v -1.338998 -0.412851 -0.709548
v -1.284252 -0.422639 -0.900495
v -1.260475 -0.236355 -0.506127
v -1.281656 -0.226666 -0.704468
v -1.228724 -0.239110 -0.897244
v -1.100636 -0.103691 -0.435511
v -1.148493 -0.078165 -0.633134
v -1.144936 -0.077364 -0.837121
v -0.817661 -0.019303 -0.343356
v -0.937288 0.029876 -0.524124
v -0.998470 0.051411 -0.730275
v -0.486225 0.047116 -0.305073
v -0.664858 0.112780 -0.449558
v -0.794945 0.153143 -0.638058
v -0.220466 0.135980 -0.358117
v -0.413525 0.199921 -0.457266
v -0.587698 0.247522 -0.615695
v -0.060986 0.277790 -0.505224
v -0.241696 0.302772 -0.547090
v -0.412225 0.342550 -0.683873
v -0.116450 0.406983 -0.700593
v -0.264047 0.419236 -0.806907
vt 0.506177 -0.003010
vt 0.506176 0.503906
vt 0.434756 0.503906
vt 0.434756 -0.003010
vt 0.506177 1.010822
vt 0.434756 1.010822
vt 0.363335 1.010822
vt 0.363335 0.503906
vt 0.363335 -0.003010
vt 0.291914 1.010822
vt 0.291914 0.503906
vt 0.291914 -0.003010
vt 0.220493 1.010822
vt 0.220493 0.503906
vt 0.220493 -0.003010
vt 0.149072 1.010822
vt 0.149072 0.503906
vt 0.149072 -0.003010
vt 0.077651 0.503906
vt 0.077651 -0.003010
vt 0.077651 1.010822
vt 0.006230 1.010822
vt 0.006230 0.503906
vt 0.006230 -0.003010
vt 1.006123 0.503906
vt 1.006123 1.010822
vt 0.934702 1.010822
vt 0.934702 0.503906
vt 1.006123 -0.003010
vt 0.934702 -0.003010
vt 0.863281 1.010822
vt 0.863281 0.503906
vt 0.863281 -0.003010
vt 0.791860 1.010822
vt 0.791860 0.503906
vt 0.791860 -0.003010
vt 0.720440 1.010822
vt 0.720439 0.503906
vt 0.720440 -0.003010
vt 0.649018 0.503906
vt 0.649019 -0.003010
vt 0.649019 1.010822
vt 0.577598 1.010822
vt 0.577597 0.503906
vt 0.577597 -0.003010
vn -0.1117 0.9761 0.1866
vn 0.0578 0.9344 0.3516
vn 0.1977 0.9787 0.0550
vn 0.0290 0.9866 -0.1604
vn 0.5659 0.8107 -0.1500
vn 0.4189 0.7970 -0.4351
vn 0.9032 0.4225 0.0749
vn 0.9068 0.3439 -0.2436
vn 0.9261 0.2125 0.3119
vn 0.9858 0.1058 0.1301
vn 0.9704 0.0999 0.2198
vn 0.9148 0.1580 0.3718
vn 0.9229 0.2058 0.3253
vn 0.9694 0.1547 0.1908
vn -0.9483 0.2989 0.1067
vn -0.9180 0.2864 -0.2742
vn -0.7257 0.6626 0.1855
vn -0.7860 0.6045 -0.1296
vn -0.4630 0.8080 0.3644
vn -0.5998 0.7899 0.1273
vn -0.2959 0.7826 0.5477
vn -0.4419 0.8284 0.3441
vn -0.3333 0.8020 0.4957
vn -0.1732 0.7352 0.6554
vn -0.0738 0.7436 0.6646
vn -0.2340 0.8234 0.5169
vn -0.1712 0.8935 0.4152
vn -0.0008 0.8340 0.5517
s off
f 45/1/1 44/2/1 3/3/1 4/4/1
f 44/2/2 1/5/2 2/6/2 3/3/2
f 3/3/3 2/6/3 5/7/3 6/8/3
f 4/4/4 3/3/4 6/8/4 7/9/4
f 6/8/5 5/7/5 8/10/5 9/11/5
f 7/9/6 6/8/6 9/11/6 10/12/6
f 9/11/7 8/10/7 11/13/7 12/14/7
f 10/12/8 9/11/8 12/14/8 13/15/8
f 12/14/9 11/13/9 14/16/9 15/17/9
f 13/15/10 12/14/10 15/17/10 16/18/10
f 16/18/11 15/17/11 18/19/11 19/20/11
f 15/17/12 14/16/12 17/21/12 18/19/12
f 18/19/13 17/21/13 20/22/13 21/23/13
f 19/20/14 18/19/14 21/23/14 22/24/14
f 24/25/15 23/26/15 26/27/15 27/28/15
f 25/29/16 24/25/16 27/28/16 28/30/16
f 27/28/17 26/27/17 29/31/17 30/32/17
f 28/30/18 27/28/18 30/32/18 31/33/18
f 30/32/19 29/31/19 32/34/19 33/35/19
f 31/33/20 30/32/20 33/35/20 34/36/20
f 33/35/21 32/34/21 35/37/21 36/38/21
f 34/36/22 33/35/22 36/38/22 37/39/22
f 37/39/23 36/38/23 39/40/23 40/41/23
f 36/38/24 35/37/24 38/42/24 39/40/24
f 39/40/25 38/42/25 41/43/25 42/44/25
f 40/41/26 39/40/26 42/44/26 43/45/26
f 43/45/27 42/44/27 44/2/27 45/1/27
f 42/44/28 41/43/28 1/5/28 44/2/28
